# Blender v2.90.1 OBJ File: 'ivy_render.blend'
# www.blender.org
o ivy_3_Plane.153
v -0.362684 -0.258465 0.010969
v 0.448896 -0.258465 0.080662
v -0.362684 0.087726 0.010969
v 0.448896 0.087726 0.080662
v -0.362684 -0.604656 0.010969
v 0.448896 -0.604656 0.080662
v 0.041206 -0.258465 0.067940
v 0.041206 0.087726 0.067940
v 0.041206 -0.604656 0.067940
v 0.414685 -0.292807 0.011534
v 0.414685 -0.860743 0.011534
v 0.035617 -0.860743 0.031107
v 0.035617 -0.292807 0.031107
v 0.106926 -0.336159 0.040395
v 0.127081 -0.903734 0.042125
v -0.250860 -0.917254 0.009671
v -0.271015 -0.349679 0.007940
v -0.063002 -0.910494 0.038858
v -0.083157 -0.342919 0.037127
v 0.222727 -1.085295 0.008043
v -0.026966 -1.112587 0.010497
v 0.161022 -0.520722 0.008650
v -0.088670 -0.548014 0.011103
vt 0.722656 0.757104
vt 1.004391 0.757104
vt 1.004391 0.996578
vt 0.722656 0.996579
vt 0.722656 0.531581
vt 1.004391 0.531581
vt 0.440921 0.531581
vt 0.440921 0.757104
vt 0.440921 0.996579
vt 0.409055 0.000000
vt 0.764666 0.000000
vt 0.764666 0.532082
vt 0.409055 0.532082
vt 0.586861 0.000000
vt 0.764666 0.000000
vt 0.764666 0.532082
vt 0.586861 0.532082
vt 0.409055 0.000000
vt 0.409055 0.532082
vt 0.764666 0.000000
vt 1.000000 0.000000
vt 1.000000 0.532082
vt 0.764666 0.532082
vn -0.0312 0.0000 0.9995
vn -0.1397 0.0000 0.9902
vn 0.0516 0.0000 0.9987
vn -0.0173 0.0024 0.9998
vn -0.1534 -0.0024 0.9882
vn 0.0098 -0.0000 1.0000
s off
f 7/1/1 2/2/1 4/3/1 8/4/1
f 9/5/1 6/6/1 2/2/1 7/1/1
f 5/7/2 9/5/2 7/1/2 1/8/2
f 1/8/2 7/1/2 8/4/2 3/9/2
f 12/10/3 11/11/3 10/12/3 13/13/3
f 18/14/4 15/15/4 14/16/4 19/17/4
f 16/18/5 18/14/5 19/17/5 17/19/5
f 21/20/6 20/21/6 22/22/6 23/23/6
