# Blender v2.90.1 OBJ File: 'ivy_render.blend'
# www.blender.org
o ivy_2_Plane.158
v -0.204026 -0.174877 0.028065
v 0.267090 -0.144291 0.028065
v -0.217025 0.025348 0.028065
v 0.254091 0.055933 0.028065
v -0.191027 -0.375101 0.028065
v 0.280089 -0.344515 0.028065
v 0.031532 -0.159584 0.033842
v 0.018533 0.040641 0.033842
v 0.044531 -0.359808 0.033842
v -0.405130 -0.158583 0.032906
v 0.065985 -0.127997 0.032906
v -0.418129 0.041641 0.032906
v 0.052987 0.072227 0.032906
v -0.392131 -0.358807 0.032906
v 0.078984 -0.328221 0.032906
v -0.169572 -0.143290 0.045744
v -0.182571 0.056934 0.045744
v -0.156573 -0.343514 0.045744
v 0.024106 -0.167644 0.036791
v 0.495222 -0.137058 0.036791
v 0.011107 0.032581 0.036791
v 0.482223 0.063166 0.036791
v 0.037105 -0.367868 0.036791
v 0.508221 -0.337282 0.036791
v 0.259664 -0.152351 0.053335
v 0.246665 0.047873 0.053335
v 0.272663 -0.352575 0.053335
v -0.105291 -0.636694 0.022236
v -0.306288 -0.649743 0.022236
v -0.134795 -0.182247 0.022236
v -0.335792 -0.195296 0.022236
v 0.465986 -0.492476 0.021506
v 0.264607 -0.496519 0.021506
v 0.456844 -0.037164 0.021506
v 0.255465 -0.041207 0.021506
v 0.128187 -0.917246 0.008041
v -0.073198 -0.913476 0.008041
v 0.136709 -0.461922 0.008041
v -0.064675 -0.458152 0.008041
v 0.228204 -0.169156 0.017130
v 0.257708 -0.623603 0.017130
v -0.046017 -0.643321 0.017130
v -0.075520 -0.188874 0.017130
vt 0.722656 0.757104
vt 1.004391 0.757104
vt 1.004391 0.996578
vt 0.722656 0.996579
vt 0.722656 0.534681
vt 1.004391 0.534681
vt 0.440921 0.534681
vt 0.440921 0.757104
vt 0.440921 0.996579
vt 0.722656 0.757104
vt 1.004391 0.757104
vt 1.004391 0.996578
vt 0.722656 0.996579
vt 0.722656 0.534681
vt 1.004391 0.534681
vt 0.440921 0.534681
vt 0.440921 0.757104
vt 0.440921 0.996579
vt 0.722656 0.757104
vt 1.004391 0.757104
vt 1.004391 0.996578
vt 0.722656 0.996579
vt 0.722656 0.534681
vt 1.004391 0.534681
vt 0.440921 0.534681
vt 0.440921 0.757104
vt 0.440921 0.996579
vt 0.764666 0.000000
vt 1.000000 0.000000
vt 1.000000 0.532082
vt 0.764666 0.532082
vt 0.764666 0.000000
vt 1.000000 0.000000
vt 1.000000 0.532082
vt 0.764666 0.532082
vt 0.764666 0.000000
vt 1.000000 0.000000
vt 1.000000 0.532082
vt 0.764666 0.532082
vt 0.409055 0.000000
vt 0.764666 0.000000
vt 0.764666 0.532082
vt 0.409055 0.532082
vn 0.0244 0.0016 0.9997
vn -0.0244 -0.0016 0.9997
vn 0.0542 0.0035 0.9985
vn -0.0542 -0.0035 0.9985
vn 0.0698 0.0045 0.9976
vn -0.0698 -0.0045 0.9976
vn -0.0000 0.0000 1.0000
s off
f 7/1/1 2/2/1 4/3/1 8/4/1
f 9/5/1 6/6/1 2/2/1 7/1/1
f 5/7/2 9/5/2 7/1/2 1/8/2
f 1/8/2 7/1/2 8/4/2 3/9/2
f 16/10/3 11/11/3 13/12/3 17/13/3
f 18/14/3 15/15/3 11/11/3 16/10/3
f 14/16/4 18/14/4 16/10/4 10/17/4
f 10/17/4 16/10/4 17/13/4 12/18/4
f 25/19/5 20/20/5 22/21/5 26/22/5
f 27/23/5 24/24/5 20/20/5 25/19/5
f 23/25/6 27/23/6 25/19/6 19/26/6
f 19/26/6 25/19/6 26/22/6 21/27/6
f 29/28/7 28/29/7 30/30/7 31/31/7
f 33/32/7 32/33/7 34/34/7 35/35/7
f 37/36/7 36/37/7 38/38/7 39/39/7
f 42/40/7 41/41/7 40/42/7 43/43/7
