# Blender v2.92.0 OBJ File: 'wakl.blend'
# www.blender.org
mtllib wall_corner_vers2.mtl
o Cube.189
v 0.475490 0.237798 -0.308935
v 0.473974 0.266811 -0.275542
v 0.528806 0.232121 -0.270113
v 0.482578 -0.250000 -0.263204
v 0.476189 -0.218685 -0.303535
v 0.537469 -0.212458 -0.254070
v 0.545161 0.236781 0.263113
v 0.487917 0.254999 0.263165
v 0.475558 0.237339 0.302875
v 0.532578 -0.225000 0.263204
v 0.482578 -0.225000 0.292449
v 0.482578 -0.250000 0.263204
v -0.427897 0.202403 -0.285041
v -0.477524 0.212958 -0.244228
v -0.413557 0.260402 -0.263435
v -0.488340 -0.229681 -0.258288
v -0.417422 -0.225000 -0.292449
v -0.417422 -0.250000 -0.263204
v -0.488167 0.218664 0.258297
v -0.414085 0.213427 0.314873
v -0.411652 0.261424 0.256197
v -0.417422 -0.250000 0.263204
v -0.417422 -0.225000 0.292449
v -0.466209 -0.207137 0.271962
vt 0.137500 0.512500
vt 0.362500 0.512500
vt 0.362500 0.737500
vt 0.137500 0.737500
vt 0.387500 0.012500
vt 0.612500 0.012500
vt 0.612500 0.237500
vt 0.387500 0.237500
vt 0.387500 0.762500
vt 0.612500 0.762500
vt 0.612500 0.987500
vt 0.387500 0.987500
vt 0.637500 0.512500
vt 0.862500 0.512500
vt 0.862500 0.737500
vt 0.637500 0.737500
vt 0.387500 0.512500
vt 0.612500 0.512500
vt 0.612500 0.737500
vt 0.387500 0.737500
vt 0.612500 0.487500
vt 0.625000 0.487500
vt 0.612500 0.500000
vt 0.362500 0.500000
vt 0.375000 0.512500
vt 0.625000 0.737500
vt 0.612500 0.750000
vt 0.387500 0.750000
vt 0.375000 0.762500
vt 0.375000 0.762500
vt 0.612500 0.250000
vt 0.612500 0.250000
vt 0.625000 0.237500
vt 0.387500 0.250000
vt 0.375000 0.237500
vt 0.612500 0.000000
vt 0.625000 0.012500
vt 0.137500 0.750000
vt 0.125000 0.737500
vt 0.125000 0.512500
vt 0.137500 0.500000
vt 0.387500 0.487500
vt 0.387500 0.000000
vt 0.612500 0.262500
vt 0.387500 0.262500
vt 0.625000 0.762500
vt 0.625000 0.987500
vt 0.362500 0.750000
vt 0.625000 0.262500
vn 0.0000 -1.0000 0.0000
vn -0.9999 -0.0128 0.0115
vn 0.0072 -0.0364 0.9993
vn 0.0000 0.9999 0.0102
vn 0.9999 -0.0045 -0.0109
vn 0.4811 0.6725 -0.5624
vn 0.5257 -0.6295 -0.5721
vn 0.2696 0.8459 0.4601
vn 0.3553 -0.7105 0.6074
vn -0.5266 0.4080 -0.7458
vn -0.2542 -0.7351 -0.6284
vn -0.3874 0.7214 0.5740
vn -0.4827 -0.6657 0.5691
vn -0.4640 -0.8854 0.0286
vn -0.0012 -0.7773 -0.6291
vn 0.6103 -0.0125 -0.7921
vn -0.5339 -0.0201 0.8453
vn 0.4997 -0.0127 0.8661
vn -0.5273 0.0212 -0.8494
vn -0.0066 0.8322 0.5544
vn 0.4271 0.9042 -0.0060
vn 0.0000 -0.7601 0.6498
vn -0.5414 0.8407 -0.0102
vn -0.0295 0.5372 -0.8430
vn 0.5126 -0.8586 -0.0079
vn -0.0195 0.0020 -0.9998
usemtl StoneMat
s off
f 18/1/1 4/2/1 12/3/1 22/4/1
f 24/5/2 19/6/2 14/7/2 16/8/2
f 11/9/3 9/10/3 20/11/3 23/12/3
f 2/13/4 15/14/4 21/15/4 8/16/4
f 6/17/5 3/18/5 7/19/5 10/20/5
f 1/21/6 2/22/6 3/23/6
f 4/2/7 5/24/7 6/25/7
f 7/19/8 8/26/8 9/27/8
f 10/28/9 11/29/9 12/30/9
f 13/31/10 14/32/10 15/33/10
f 16/8/11 17/34/11 18/35/11
f 19/6/12 20/36/12 21/37/12
f 22/4/13 23/38/13 24/39/13
f 18/1/14 22/4/14 24/39/14 16/40/14
f 4/2/15 18/1/15 17/41/15 5/24/15
f 3/18/16 6/17/16 5/42/16 1/21/16
f 23/43/17 20/36/17 19/6/17 24/5/17
f 9/10/18 11/9/18 10/20/18 7/19/18
f 13/44/19 17/45/19 16/8/19 14/7/19
f 8/46/20 21/47/20 20/11/20 9/10/20
f 2/13/21 8/16/21 7/19/21 3/18/21
f 22/4/22 12/3/22 11/48/22 23/38/22
f 21/37/23 15/33/23 14/7/23 19/6/23
f 15/49/24 2/22/24 1/21/24 13/44/24
f 12/3/25 4/2/25 6/17/25 10/20/25
f 17/45/26 13/44/26 1/21/26 5/42/26
o Cube.190
v -0.418454 0.760308 0.308935
v -0.442152 0.776518 0.259125
v -0.461106 0.754631 0.270113
v -0.424124 0.272510 0.263205
v -0.402883 0.317638 0.310668
v -0.468037 0.310052 0.254071
v -0.474191 0.759291 -0.263112
v -0.428356 0.805667 -0.254650
v -0.418508 0.759849 -0.302875
v -0.464124 0.297510 -0.263204
v -0.420442 0.311019 -0.288702
v -0.424124 0.272510 -0.263204
v 0.306191 0.711961 0.295150
v 0.343957 0.735469 0.244228
v 0.292784 0.782912 0.263435
v 0.352610 0.292829 0.258288
v 0.295876 0.297510 0.292450
v 0.295876 0.272510 0.263205
v 0.341576 0.741060 -0.257326
v 0.293206 0.735938 -0.314873
v 0.291260 0.783934 -0.256197
v 0.295876 0.272510 -0.263204
v 0.310815 0.290795 -0.295858
v 0.334905 0.315373 -0.271961
vt 0.137500 0.512500
vt 0.362500 0.512500
vt 0.362500 0.737500
vt 0.137500 0.737500
vt 0.387500 0.012500
vt 0.612500 0.012500
vt 0.612500 0.237500
vt 0.387500 0.237500
vt 0.387500 0.762500
vt 0.612500 0.762500
vt 0.612500 0.987500
vt 0.387500 0.987500
vt 0.637500 0.512500
vt 0.862500 0.512500
vt 0.862500 0.737500
vt 0.637500 0.737500
vt 0.387500 0.512500
vt 0.612500 0.512500
vt 0.612500 0.737500
vt 0.387500 0.737500
vt 0.612500 0.487500
vt 0.625000 0.487500
vt 0.612500 0.500000
vt 0.362500 0.500000
vt 0.375000 0.512500
vt 0.625000 0.737500
vt 0.612500 0.750000
vt 0.387500 0.750000
vt 0.375000 0.762500
vt 0.375000 0.762500
vt 0.612500 0.250000
vt 0.612500 0.250000
vt 0.625000 0.237500
vt 0.387500 0.250000
vt 0.375000 0.237500
vt 0.612500 0.000000
vt 0.625000 0.012500
vt 0.137500 0.750000
vt 0.125000 0.737500
vt 0.125000 0.512500
vt 0.137500 0.500000
vt 0.387500 0.487500
vt 0.387500 0.000000
vt 0.612500 0.262500
vt 0.387500 0.262500
vt 0.625000 0.762500
vt 0.625000 0.987500
vt 0.362500 0.750000
vt 0.625000 0.262500
vn 0.0000 -1.0000 0.0000
vn 0.9998 0.0023 -0.0194
vn -0.0144 -0.0373 -0.9992
vn 0.0105 0.9995 0.0293
vn -1.0000 -0.0036 0.0088
vn -0.5297 0.6995 0.4797
vn -0.5466 -0.4709 0.6924
vn -0.4739 0.5880 -0.6555
vn -0.3144 -0.5030 -0.8051
vn 0.6298 0.4131 0.6578
vn 0.3121 -0.7221 0.6173
vn 0.5477 0.6564 -0.5188
vn 0.7343 -0.6775 -0.0434
vn 0.5478 -0.8362 -0.0270
vn -0.0018 -0.7378 0.6750
vn -0.6614 -0.0185 0.7498
vn 0.7460 0.0060 -0.6659
vn -0.5471 -0.0178 -0.8369
vn 0.6681 0.0086 0.7440
vn 0.0178 0.7525 -0.6584
vn -0.7247 0.6887 0.0217
vn -0.0134 -0.7132 -0.7008
vn 0.6650 0.7468 0.0023
vn 0.0245 0.6884 0.7249
vn -0.5981 -0.8014 0.0074
vn 0.0224 -0.0010 0.9997
usemtl StoneMat
s off
f 42/50/27 28/51/27 36/52/27 46/53/27
f 48/54/28 43/55/28 38/56/28 40/57/28
f 35/58/29 33/59/29 44/60/29 47/61/29
f 26/62/30 39/63/30 45/64/30 32/65/30
f 30/66/31 27/67/31 31/68/31 34/69/31
f 25/70/32 26/71/32 27/72/32
f 28/51/33 29/73/33 30/74/33
f 31/68/34 32/75/34 33/76/34
f 34/77/35 35/78/35 36/79/35
f 37/80/36 38/81/36 39/82/36
f 40/57/37 41/83/37 42/84/37
f 43/55/38 44/85/38 45/86/38
f 46/53/39 47/87/39 48/88/39
f 42/50/40 46/53/40 48/88/40 40/89/40
f 28/51/41 42/50/41 41/90/41 29/73/41
f 27/67/42 30/66/42 29/91/42 25/70/42
f 47/92/43 44/85/43 43/55/43 48/54/43
f 33/59/44 35/58/44 34/69/44 31/68/44
f 37/93/45 41/94/45 40/57/45 38/56/45
f 32/95/46 45/96/46 44/60/46 33/59/46
f 26/62/47 32/65/47 31/68/47 27/67/47
f 46/53/48 36/52/48 35/97/48 47/87/48
f 45/86/49 39/82/49 38/56/49 43/55/49
f 39/98/50 26/71/50 25/70/50 37/93/50
f 36/52/51 28/51/51 30/66/51 34/69/51
f 41/94/52 37/93/52 25/70/52 29/91/52
o Cube.191
v 0.475490 1.263071 -0.308935
v 0.473974 1.292084 -0.275542
v 0.528806 1.257395 -0.270113
v 0.482578 0.775274 -0.263204
v 0.476189 0.806588 -0.303535
v 0.537469 0.812816 -0.254070
v 0.545161 1.262054 0.263113
v 0.487917 1.280272 0.263165
v 0.475558 1.262613 0.302875
v 0.532578 0.800274 0.263204
v 0.482578 0.800274 0.292449
v 0.482578 0.775274 0.263204
v -0.427897 1.227676 -0.285041
v -0.477524 1.238232 -0.244228
v -0.413557 1.285676 -0.263435
v -0.488340 0.795593 -0.258288
v -0.417422 0.800274 -0.292449
v -0.417422 0.775274 -0.263204
v -0.488167 1.243937 0.258297
v -0.414085 1.238701 0.314873
v -0.411652 1.286698 0.256197
v -0.417422 0.775274 0.263204
v -0.417422 0.800274 0.292449
v -0.466209 0.818137 0.271962
vt 0.137500 0.512500
vt 0.362500 0.512500
vt 0.362500 0.737500
vt 0.137500 0.737500
vt 0.387500 0.012500
vt 0.612500 0.012500
vt 0.612500 0.237500
vt 0.387500 0.237500
vt 0.387500 0.762500
vt 0.612500 0.762500
vt 0.612500 0.987500
vt 0.387500 0.987500
vt 0.637500 0.512500
vt 0.862500 0.512500
vt 0.862500 0.737500
vt 0.637500 0.737500
vt 0.387500 0.512500
vt 0.612500 0.512500
vt 0.612500 0.737500
vt 0.387500 0.737500
vt 0.612500 0.487500
vt 0.625000 0.487500
vt 0.612500 0.500000
vt 0.362500 0.500000
vt 0.375000 0.512500
vt 0.625000 0.737500
vt 0.612500 0.750000
vt 0.387500 0.750000
vt 0.375000 0.762500
vt 0.375000 0.762500
vt 0.612500 0.250000
vt 0.612500 0.250000
vt 0.625000 0.237500
vt 0.387500 0.250000
vt 0.375000 0.237500
vt 0.612500 0.000000
vt 0.625000 0.012500
vt 0.137500 0.750000
vt 0.125000 0.737500
vt 0.125000 0.512500
vt 0.137500 0.500000
vt 0.387500 0.487500
vt 0.387500 0.000000
vt 0.612500 0.262500
vt 0.387500 0.262500
vt 0.625000 0.762500
vt 0.625000 0.987500
vt 0.362500 0.750000
vt 0.625000 0.262500
vn 0.0000 -1.0000 0.0000
vn -0.9999 -0.0128 0.0115
vn 0.0072 -0.0364 0.9993
vn 0.0000 0.9999 0.0102
vn 0.9999 -0.0045 -0.0109
vn 0.4811 0.6725 -0.5624
vn 0.5257 -0.6295 -0.5721
vn 0.2696 0.8459 0.4601
vn 0.3553 -0.7105 0.6074
vn -0.5266 0.4080 -0.7458
vn -0.2542 -0.7351 -0.6284
vn -0.3874 0.7214 0.5740
vn -0.4827 -0.6657 0.5691
vn -0.4640 -0.8854 0.0286
vn -0.0012 -0.7773 -0.6291
vn 0.6103 -0.0125 -0.7921
vn -0.5339 -0.0201 0.8453
vn 0.4997 -0.0127 0.8661
vn -0.5273 0.0212 -0.8494
vn -0.0066 0.8322 0.5544
vn 0.4271 0.9042 -0.0060
vn 0.0000 -0.7601 0.6498
vn -0.5414 0.8407 -0.0102
vn -0.0295 0.5372 -0.8430
vn 0.5126 -0.8586 -0.0079
vn -0.0195 0.0020 -0.9998
usemtl StoneMat
s off
f 66/99/53 52/100/53 60/101/53 70/102/53
f 72/103/54 67/104/54 62/105/54 64/106/54
f 59/107/55 57/108/55 68/109/55 71/110/55
f 50/111/56 63/112/56 69/113/56 56/114/56
f 54/115/57 51/116/57 55/117/57 58/118/57
f 49/119/58 50/120/58 51/121/58
f 52/100/59 53/122/59 54/123/59
f 55/117/60 56/124/60 57/125/60
f 58/126/61 59/127/61 60/128/61
f 61/129/62 62/130/62 63/131/62
f 64/106/63 65/132/63 66/133/63
f 67/104/64 68/134/64 69/135/64
f 70/102/65 71/136/65 72/137/65
f 66/99/66 70/102/66 72/137/66 64/138/66
f 52/100/67 66/99/67 65/139/67 53/122/67
f 51/116/68 54/115/68 53/140/68 49/119/68
f 71/141/69 68/134/69 67/104/69 72/103/69
f 57/108/70 59/107/70 58/118/70 55/117/70
f 61/142/71 65/143/71 64/106/71 62/105/71
f 56/144/72 69/145/72 68/109/72 57/108/72
f 50/111/73 56/114/73 55/117/73 51/116/73
f 70/102/74 60/101/74 59/146/74 71/136/74
f 69/135/75 63/131/75 62/105/75 67/104/75
f 63/147/76 50/120/76 49/119/76 61/142/76
f 60/101/77 52/100/77 54/115/77 58/118/77
f 65/143/78 61/142/78 49/119/78 53/140/78
o Cube.192
v -0.418454 1.785581 0.308935
v -0.442152 1.801791 0.259125
v -0.461106 1.779905 0.270113
v -0.424124 1.297784 0.263205
v -0.402883 1.342912 0.310668
v -0.468037 1.335326 0.254071
v -0.474191 1.784565 -0.263112
v -0.428356 1.830941 -0.254650
v -0.418508 1.785123 -0.302875
v -0.464124 1.322784 -0.263204
v -0.420442 1.336292 -0.288702
v -0.424124 1.297784 -0.263204
v 0.306191 1.737235 0.295150
v 0.343957 1.760742 0.244228
v 0.292784 1.808186 0.263435
v 0.352610 1.318103 0.258288
v 0.295876 1.322784 0.292450
v 0.295876 1.297784 0.263205
v 0.341576 1.766334 -0.257326
v 0.293206 1.761211 -0.314873
v 0.291260 1.809208 -0.256197
v 0.295876 1.297784 -0.263204
v 0.310815 1.316069 -0.295858
v 0.334905 1.340647 -0.271961
vt 0.137500 0.512500
vt 0.362500 0.512500
vt 0.362500 0.737500
vt 0.137500 0.737500
vt 0.387500 0.012500
vt 0.612500 0.012500
vt 0.612500 0.237500
vt 0.387500 0.237500
vt 0.387500 0.762500
vt 0.612500 0.762500
vt 0.612500 0.987500
vt 0.387500 0.987500
vt 0.637500 0.512500
vt 0.862500 0.512500
vt 0.862500 0.737500
vt 0.637500 0.737500
vt 0.387500 0.512500
vt 0.612500 0.512500
vt 0.612500 0.737500
vt 0.387500 0.737500
vt 0.612500 0.487500
vt 0.625000 0.487500
vt 0.612500 0.500000
vt 0.362500 0.500000
vt 0.375000 0.512500
vt 0.625000 0.737500
vt 0.612500 0.750000
vt 0.387500 0.750000
vt 0.375000 0.762500
vt 0.375000 0.762500
vt 0.612500 0.250000
vt 0.612500 0.250000
vt 0.625000 0.237500
vt 0.387500 0.250000
vt 0.375000 0.237500
vt 0.612500 0.000000
vt 0.625000 0.012500
vt 0.137500 0.750000
vt 0.125000 0.737500
vt 0.125000 0.512500
vt 0.137500 0.500000
vt 0.387500 0.487500
vt 0.387500 0.000000
vt 0.612500 0.262500
vt 0.387500 0.262500
vt 0.625000 0.762500
vt 0.625000 0.987500
vt 0.362500 0.750000
vt 0.625000 0.262500
vn 0.0000 -1.0000 0.0000
vn 0.9998 0.0023 -0.0194
vn -0.0144 -0.0373 -0.9992
vn 0.0105 0.9995 0.0293
vn -1.0000 -0.0036 0.0088
vn -0.5297 0.6995 0.4797
vn -0.5466 -0.4709 0.6924
vn -0.4739 0.5880 -0.6555
vn -0.3144 -0.5030 -0.8051
vn 0.6298 0.4131 0.6578
vn 0.3121 -0.7221 0.6173
vn 0.5477 0.6564 -0.5188
vn 0.7343 -0.6775 -0.0434
vn 0.5478 -0.8362 -0.0270
vn -0.0018 -0.7378 0.6750
vn -0.6614 -0.0185 0.7498
vn 0.7460 0.0060 -0.6659
vn -0.5471 -0.0178 -0.8369
vn 0.6681 0.0086 0.7440
vn 0.0178 0.7525 -0.6584
vn -0.7247 0.6887 0.0217
vn -0.0134 -0.7132 -0.7008
vn 0.6650 0.7468 0.0023
vn 0.0245 0.6884 0.7249
vn -0.5981 -0.8014 0.0074
vn 0.0224 -0.0010 0.9997
usemtl StoneMat
s off
f 90/148/79 76/149/79 84/150/79 94/151/79
f 96/152/80 91/153/80 86/154/80 88/155/80
f 83/156/81 81/157/81 92/158/81 95/159/81
f 74/160/82 87/161/82 93/162/82 80/163/82
f 78/164/83 75/165/83 79/166/83 82/167/83
f 73/168/84 74/169/84 75/170/84
f 76/149/85 77/171/85 78/172/85
f 79/166/86 80/173/86 81/174/86
f 82/175/87 83/176/87 84/177/87
f 85/178/88 86/179/88 87/180/88
f 88/155/89 89/181/89 90/182/89
f 91/153/90 92/183/90 93/184/90
f 94/151/91 95/185/91 96/186/91
f 90/148/92 94/151/92 96/186/92 88/187/92
f 76/149/93 90/148/93 89/188/93 77/171/93
f 75/165/94 78/164/94 77/189/94 73/168/94
f 95/190/95 92/183/95 91/153/95 96/152/95
f 81/157/96 83/156/96 82/167/96 79/166/96
f 85/191/97 89/192/97 88/155/97 86/154/97
f 80/193/98 93/194/98 92/158/98 81/157/98
f 74/160/99 80/163/99 79/166/99 75/165/99
f 94/151/100 84/150/100 83/195/100 95/185/100
f 93/184/101 87/180/101 86/154/101 91/153/101
f 87/196/102 74/169/102 73/168/102 85/191/102
f 84/150/103 76/149/103 78/164/103 82/167/103
f 89/192/104 85/191/104 73/168/104 77/189/104
o Cube.193
v 0.475490 2.290693 -0.308935
v 0.473974 2.319706 -0.275542
v 0.528806 2.285016 -0.270113
v 0.482578 1.802895 -0.263204
v 0.476189 1.834210 -0.303535
v 0.537469 1.840437 -0.254070
v 0.545161 2.289676 0.263113
v 0.487917 2.307894 0.263165
v 0.475558 2.290234 0.302875
v 0.532578 1.827895 0.263204
v 0.482578 1.827895 0.292449
v 0.482578 1.802895 0.263204
v -0.427897 2.255298 -0.285041
v -0.477524 2.265854 -0.244228
v -0.413557 2.313297 -0.263435
v -0.488340 1.823214 -0.258288
v -0.417422 1.827895 -0.292449
v -0.417422 1.802895 -0.263204
v -0.488167 2.271559 0.258297
v -0.414085 2.266323 0.314873
v -0.411652 2.314319 0.256197
v -0.417422 1.802895 0.263204
v -0.417422 1.827895 0.292449
v -0.466209 1.845758 0.271962
vt 0.137500 0.512500
vt 0.362500 0.512500
vt 0.362500 0.737500
vt 0.137500 0.737500
vt 0.387500 0.012500
vt 0.612500 0.012500
vt 0.612500 0.237500
vt 0.387500 0.237500
vt 0.387500 0.762500
vt 0.612500 0.762500
vt 0.612500 0.987500
vt 0.387500 0.987500
vt 0.637500 0.512500
vt 0.862500 0.512500
vt 0.862500 0.737500
vt 0.637500 0.737500
vt 0.387500 0.512500
vt 0.612500 0.512500
vt 0.612500 0.737500
vt 0.387500 0.737500
vt 0.612500 0.487500
vt 0.625000 0.487500
vt 0.612500 0.500000
vt 0.362500 0.500000
vt 0.375000 0.512500
vt 0.625000 0.737500
vt 0.612500 0.750000
vt 0.387500 0.750000
vt 0.375000 0.762500
vt 0.375000 0.762500
vt 0.612500 0.250000
vt 0.612500 0.250000
vt 0.625000 0.237500
vt 0.387500 0.250000
vt 0.375000 0.237500
vt 0.612500 0.000000
vt 0.625000 0.012500
vt 0.137500 0.750000
vt 0.125000 0.737500
vt 0.125000 0.512500
vt 0.137500 0.500000
vt 0.387500 0.487500
vt 0.387500 0.000000
vt 0.612500 0.262500
vt 0.387500 0.262500
vt 0.625000 0.762500
vt 0.625000 0.987500
vt 0.362500 0.750000
vt 0.625000 0.262500
vn 0.0000 -1.0000 0.0000
vn -0.9999 -0.0128 0.0115
vn 0.0072 -0.0364 0.9993
vn 0.0000 0.9999 0.0102
vn 0.9999 -0.0045 -0.0109
vn 0.4811 0.6725 -0.5624
vn 0.5257 -0.6295 -0.5721
vn 0.2696 0.8459 0.4601
vn 0.3553 -0.7105 0.6074
vn -0.5266 0.4080 -0.7458
vn -0.2542 -0.7351 -0.6284
vn -0.3874 0.7214 0.5740
vn -0.4827 -0.6657 0.5691
vn -0.4640 -0.8854 0.0286
vn -0.0012 -0.7773 -0.6291
vn 0.6103 -0.0125 -0.7921
vn -0.5339 -0.0201 0.8453
vn 0.4997 -0.0127 0.8661
vn -0.5273 0.0212 -0.8494
vn -0.0066 0.8322 0.5544
vn 0.4271 0.9042 -0.0060
vn 0.0000 -0.7601 0.6498
vn -0.5414 0.8407 -0.0102
vn -0.0295 0.5372 -0.8430
vn 0.5126 -0.8586 -0.0079
vn -0.0195 0.0020 -0.9998
usemtl StoneMat
s off
f 114/197/105 100/198/105 108/199/105 118/200/105
f 120/201/106 115/202/106 110/203/106 112/204/106
f 107/205/107 105/206/107 116/207/107 119/208/107
f 98/209/108 111/210/108 117/211/108 104/212/108
f 102/213/109 99/214/109 103/215/109 106/216/109
f 97/217/110 98/218/110 99/219/110
f 100/198/111 101/220/111 102/221/111
f 103/215/112 104/222/112 105/223/112
f 106/224/113 107/225/113 108/226/113
f 109/227/114 110/228/114 111/229/114
f 112/204/115 113/230/115 114/231/115
f 115/202/116 116/232/116 117/233/116
f 118/200/117 119/234/117 120/235/117
f 114/197/118 118/200/118 120/235/118 112/236/118
f 100/198/119 114/197/119 113/237/119 101/220/119
f 99/214/120 102/213/120 101/238/120 97/217/120
f 119/239/121 116/232/121 115/202/121 120/201/121
f 105/206/122 107/205/122 106/216/122 103/215/122
f 109/240/123 113/241/123 112/204/123 110/203/123
f 104/242/124 117/243/124 116/207/124 105/206/124
f 98/209/125 104/212/125 103/215/125 99/214/125
f 118/200/126 108/199/126 107/244/126 119/234/126
f 117/233/127 111/229/127 110/203/127 115/202/127
f 111/245/128 98/218/128 97/217/128 109/240/128
f 108/199/129 100/198/129 102/213/129 106/216/129
f 113/241/130 109/240/130 97/217/130 101/238/130
o Cube.194
v -0.418454 2.813203 0.308935
v -0.442152 2.829413 0.259125
v -0.461106 2.807527 0.270113
v -0.424124 2.325406 0.263205
v -0.402883 2.370533 0.310668
v -0.468037 2.362947 0.254071
v -0.474191 2.812186 -0.263112
v -0.428356 2.858562 -0.254650
v -0.418508 2.812745 -0.302875
v -0.464124 2.350406 -0.263204
v -0.420442 2.363914 -0.288702
v -0.424124 2.325406 -0.263204
v 0.306191 2.764857 0.295150
v 0.343957 2.788364 0.244228
v 0.292784 2.835808 0.263435
v 0.352610 2.345725 0.258288
v 0.295876 2.350406 0.292450
v 0.295876 2.325406 0.263205
v 0.341576 2.793956 -0.257326
v 0.293206 2.788833 -0.314873
v 0.291260 2.836830 -0.256197
v 0.295876 2.325406 -0.263204
v 0.310815 2.343691 -0.295858
v 0.334905 2.368268 -0.271961
vt 0.137500 0.512500
vt 0.362500 0.512500
vt 0.362500 0.737500
vt 0.137500 0.737500
vt 0.387500 0.012500
vt 0.612500 0.012500
vt 0.612500 0.237500
vt 0.387500 0.237500
vt 0.387500 0.762500
vt 0.612500 0.762500
vt 0.612500 0.987500
vt 0.387500 0.987500
vt 0.637500 0.512500
vt 0.862500 0.512500
vt 0.862500 0.737500
vt 0.637500 0.737500
vt 0.387500 0.512500
vt 0.612500 0.512500
vt 0.612500 0.737500
vt 0.387500 0.737500
vt 0.612500 0.487500
vt 0.625000 0.487500
vt 0.612500 0.500000
vt 0.362500 0.500000
vt 0.375000 0.512500
vt 0.625000 0.737500
vt 0.612500 0.750000
vt 0.387500 0.750000
vt 0.375000 0.762500
vt 0.375000 0.762500
vt 0.612500 0.250000
vt 0.612500 0.250000
vt 0.625000 0.237500
vt 0.387500 0.250000
vt 0.375000 0.237500
vt 0.612500 0.000000
vt 0.625000 0.012500
vt 0.137500 0.750000
vt 0.125000 0.737500
vt 0.125000 0.512500
vt 0.137500 0.500000
vt 0.387500 0.487500
vt 0.387500 0.000000
vt 0.612500 0.262500
vt 0.387500 0.262500
vt 0.625000 0.762500
vt 0.625000 0.987500
vt 0.362500 0.750000
vt 0.625000 0.262500
vn 0.0000 -1.0000 0.0000
vn 0.9998 0.0023 -0.0194
vn -0.0144 -0.0373 -0.9992
vn 0.0105 0.9995 0.0293
vn -1.0000 -0.0036 0.0088
vn -0.5297 0.6995 0.4797
vn -0.5466 -0.4709 0.6924
vn -0.4739 0.5880 -0.6555
vn -0.3144 -0.5030 -0.8051
vn 0.6298 0.4131 0.6578
vn 0.3121 -0.7221 0.6173
vn 0.5477 0.6564 -0.5188
vn 0.7343 -0.6775 -0.0434
vn 0.5478 -0.8362 -0.0270
vn -0.0018 -0.7378 0.6750
vn -0.6614 -0.0185 0.7498
vn 0.7460 0.0060 -0.6659
vn -0.5471 -0.0178 -0.8369
vn 0.6681 0.0086 0.7440
vn 0.0178 0.7525 -0.6584
vn -0.7248 0.6887 0.0217
vn -0.0134 -0.7132 -0.7008
vn 0.6650 0.7468 0.0023
vn 0.0245 0.6884 0.7249
vn -0.5981 -0.8014 0.0074
vn 0.0224 -0.0010 0.9997
usemtl StoneMat
s off
f 138/246/131 124/247/131 132/248/131 142/249/131
f 144/250/132 139/251/132 134/252/132 136/253/132
f 131/254/133 129/255/133 140/256/133 143/257/133
f 122/258/134 135/259/134 141/260/134 128/261/134
f 126/262/135 123/263/135 127/264/135 130/265/135
f 121/266/136 122/267/136 123/268/136
f 124/247/137 125/269/137 126/270/137
f 127/264/138 128/271/138 129/272/138
f 130/273/139 131/274/139 132/275/139
f 133/276/140 134/277/140 135/278/140
f 136/253/141 137/279/141 138/280/141
f 139/251/142 140/281/142 141/282/142
f 142/249/143 143/283/143 144/284/143
f 138/246/144 142/249/144 144/284/144 136/285/144
f 124/247/145 138/246/145 137/286/145 125/269/145
f 123/263/146 126/262/146 125/287/146 121/266/146
f 143/288/147 140/281/147 139/251/147 144/250/147
f 129/255/148 131/254/148 130/265/148 127/264/148
f 133/289/149 137/290/149 136/253/149 134/252/149
f 128/291/150 141/292/150 140/256/150 129/255/150
f 122/258/151 128/261/151 127/264/151 123/263/151
f 142/249/152 132/248/152 131/293/152 143/283/152
f 141/282/153 135/278/153 134/252/153 139/251/153
f 135/294/154 122/267/154 121/266/154 133/289/154
f 132/248/155 124/247/155 126/262/155 130/265/155
f 137/290/156 133/289/156 121/266/156 125/287/156
o Cube.195
v 0.475490 3.315967 -0.308935
v 0.473974 3.344980 -0.275542
v 0.528806 3.310290 -0.270113
v 0.482578 2.828169 -0.263204
v 0.476189 2.859484 -0.303535
v 0.537469 2.865711 -0.254070
v 0.545161 3.314950 0.263113
v 0.487917 3.333168 0.263165
v 0.475558 3.315508 0.302875
v 0.532578 2.853169 0.263204
v 0.482578 2.853169 0.292449
v 0.482578 2.828169 0.263204
v -0.427897 3.280572 -0.285041
v -0.477524 3.291127 -0.244228
v -0.413557 3.338571 -0.263435
v -0.488340 2.848488 -0.258288
v -0.417422 2.853169 -0.292449
v -0.417422 2.828169 -0.263204
v -0.488167 3.296833 0.258297
v -0.414085 3.291596 0.314873
v -0.411652 3.339593 0.256197
v -0.417422 2.828169 0.263204
v -0.417422 2.853169 0.292449
v -0.466209 2.871032 0.271962
vt 0.137500 0.512500
vt 0.362500 0.512500
vt 0.362500 0.737500
vt 0.137500 0.737500
vt 0.387500 0.012500
vt 0.612500 0.012500
vt 0.612500 0.237500
vt 0.387500 0.237500
vt 0.387500 0.762500
vt 0.612500 0.762500
vt 0.612500 0.987500
vt 0.387500 0.987500
vt 0.637500 0.512500
vt 0.862500 0.512500
vt 0.862500 0.737500
vt 0.637500 0.737500
vt 0.387500 0.512500
vt 0.612500 0.512500
vt 0.612500 0.737500
vt 0.387500 0.737500
vt 0.612500 0.487500
vt 0.625000 0.487500
vt 0.612500 0.500000
vt 0.362500 0.500000
vt 0.375000 0.512500
vt 0.625000 0.737500
vt 0.612500 0.750000
vt 0.387500 0.750000
vt 0.375000 0.762500
vt 0.375000 0.762500
vt 0.612500 0.250000
vt 0.612500 0.250000
vt 0.625000 0.237500
vt 0.387500 0.250000
vt 0.375000 0.237500
vt 0.612500 0.000000
vt 0.625000 0.012500
vt 0.137500 0.750000
vt 0.125000 0.737500
vt 0.125000 0.512500
vt 0.137500 0.500000
vt 0.387500 0.487500
vt 0.387500 0.000000
vt 0.612500 0.262500
vt 0.387500 0.262500
vt 0.625000 0.762500
vt 0.625000 0.987500
vt 0.362500 0.750000
vt 0.625000 0.262500
vn 0.0000 -1.0000 0.0000
vn -0.9999 -0.0128 0.0115
vn 0.0072 -0.0364 0.9993
vn 0.0000 0.9999 0.0102
vn 0.9999 -0.0045 -0.0109
vn 0.4811 0.6725 -0.5624
vn 0.5257 -0.6295 -0.5721
vn 0.2696 0.8459 0.4601
vn 0.3553 -0.7105 0.6074
vn -0.5266 0.4080 -0.7458
vn -0.2542 -0.7351 -0.6284
vn -0.3874 0.7214 0.5740
vn -0.4827 -0.6657 0.5691
vn -0.4640 -0.8854 0.0286
vn -0.0012 -0.7773 -0.6291
vn 0.6103 -0.0125 -0.7921
vn -0.5339 -0.0201 0.8453
vn 0.4997 -0.0127 0.8661
vn -0.5273 0.0212 -0.8494
vn -0.0066 0.8322 0.5544
vn 0.4271 0.9042 -0.0060
vn 0.0000 -0.7601 0.6498
vn -0.5414 0.8407 -0.0102
vn -0.0295 0.5372 -0.8430
vn 0.5126 -0.8586 -0.0079
vn -0.0195 0.0020 -0.9998
usemtl StoneMat
s off
f 162/295/157 148/296/157 156/297/157 166/298/157
f 168/299/158 163/300/158 158/301/158 160/302/158
f 155/303/159 153/304/159 164/305/159 167/306/159
f 146/307/160 159/308/160 165/309/160 152/310/160
f 150/311/161 147/312/161 151/313/161 154/314/161
f 145/315/162 146/316/162 147/317/162
f 148/296/163 149/318/163 150/319/163
f 151/313/164 152/320/164 153/321/164
f 154/322/165 155/323/165 156/324/165
f 157/325/166 158/326/166 159/327/166
f 160/302/167 161/328/167 162/329/167
f 163/300/168 164/330/168 165/331/168
f 166/298/169 167/332/169 168/333/169
f 162/295/170 166/298/170 168/333/170 160/334/170
f 148/296/171 162/295/171 161/335/171 149/318/171
f 147/312/172 150/311/172 149/336/172 145/315/172
f 167/337/173 164/330/173 163/300/173 168/299/173
f 153/304/174 155/303/174 154/314/174 151/313/174
f 157/338/175 161/339/175 160/302/175 158/301/175
f 152/340/176 165/341/176 164/305/176 153/304/176
f 146/307/177 152/310/177 151/313/177 147/312/177
f 166/298/178 156/297/178 155/342/178 167/332/178
f 165/331/179 159/327/179 158/301/179 163/300/179
f 159/343/180 146/316/180 145/315/180 157/338/180
f 156/297/181 148/296/181 150/311/181 154/314/181
f 161/339/182 157/338/182 145/315/182 149/336/182
